<svg xmlns="http://www.w3.org/2000/svg" xmlns:xlink="http://www.w3.org/1999/xlink" width="1080" zoomAndPan="magnify" viewBox="0 0 810 809.999993" height="1080" preserveAspectRatio="xMidYMid meet" version="1.0"><defs><clipPath id="ee483cd708"><path d="M 0 0 L 515 0 L 515 515 L 0 515 Z M 0 0 " clip-rule="nonzero"/></clipPath><clipPath id="2024ab43d0"><path d="M 443.25 0.00390625 L 514.527344 71.28125 L 71.273438 514.53125 L -0.00390625 443.253906 Z M 443.25 0.00390625 " clip-rule="nonzero"/></clipPath><clipPath id="adef3800ed"><path d="M 0 0 L 514.558594 0 L 514.558594 514.558594 L 0 514.558594 Z M 0 0 " clip-rule="nonzero"/></clipPath><clipPath id="b04834ac3a"><path d="M 443.25 0.00390625 L 514.527344 71.28125 L 71.273438 514.53125 L -0.00390625 443.253906 Z M 443.25 0.00390625 " clip-rule="nonzero"/></clipPath><clipPath id="a4ffd2e3c2"><rect x="0" width="515" y="0" height="515"/></clipPath><clipPath id="f89d4e9c07"><path d="M 288 295 L 803 295 L 803 810 L 288 810 Z M 288 295 " clip-rule="nonzero"/></clipPath><clipPath id="4978b68637"><path d="M 731.488281 295.472656 L 802.765625 366.75 L 359.515625 810.003906 L 288.238281 738.722656 Z M 731.488281 295.472656 " clip-rule="nonzero"/></clipPath><clipPath id="3c0e658188"><path d="M 0 0.441406 L 514.800781 0.441406 L 514.800781 515 L 0 515 Z M 0 0.441406 " clip-rule="nonzero"/></clipPath><clipPath id="871d5a15fb"><path d="M 443.488281 0.472656 L 514.765625 71.75 L 71.515625 515.003906 L 0.238281 443.722656 Z M 443.488281 0.472656 " clip-rule="nonzero"/></clipPath><clipPath id="d69f67ebcc"><rect x="0" width="515" y="0" height="515"/></clipPath><clipPath id="e92e785281"><path d="M 288 0 L 803 0 L 803 515 L 288 515 Z M 288 0 " clip-rule="nonzero"/></clipPath><clipPath id="7a232ada1a"><path d="M 731.488281 0.00390625 L 802.765625 71.28125 L 359.515625 514.53125 L 288.238281 443.253906 Z M 731.488281 0.00390625 " clip-rule="nonzero"/></clipPath><clipPath id="d2b66b82fc"><path d="M 0 0 L 514.800781 0 L 514.800781 514.558594 L 0 514.558594 Z M 0 0 " clip-rule="nonzero"/></clipPath><clipPath id="0964c9ab97"><path d="M 443.488281 0.00390625 L 514.765625 71.28125 L 71.515625 514.53125 L 0.238281 443.253906 Z M 443.488281 0.00390625 " clip-rule="nonzero"/></clipPath><clipPath id="d1e60b9ab2"><rect x="0" width="515" y="0" height="515"/></clipPath></defs><g clip-path="url(#ee483cd708)"><g clip-path="url(#2024ab43d0)"><g transform="matrix(1, 0, 0, 1, 0, 0.000000000000039746)"><g clip-path="url(#a4ffd2e3c2)"><g clip-path="url(#adef3800ed)"><g clip-path="url(#b04834ac3a)"><path fill="#000000" d="M 443.25 0.00390625 L 514.527344 71.28125 L 71.269531 514.539062 L -0.0117188 443.261719 Z M 443.25 0.00390625 " fill-opacity="1" fill-rule="nonzero"/></g></g></g></g></g></g><g clip-path="url(#f89d4e9c07)"><g clip-path="url(#4978b68637)"><g transform="matrix(1, 0, 0, 1, 288, 295)"><g clip-path="url(#d69f67ebcc)"><g clip-path="url(#3c0e658188)"><g clip-path="url(#871d5a15fb)"><path fill="#000000" d="M 443.488281 0.472656 L 514.765625 71.75 L 71.507812 515.007812 L 0.230469 443.730469 Z M 443.488281 0.472656 " fill-opacity="1" fill-rule="nonzero"/></g></g></g></g></g></g><g clip-path="url(#e92e785281)"><g clip-path="url(#7a232ada1a)"><g transform="matrix(1, 0, 0, 1, 288, 0.000000000000039746)"><g clip-path="url(#d1e60b9ab2)"><g clip-path="url(#d2b66b82fc)"><g clip-path="url(#0964c9ab97)"><path fill="#000000" d="M 443.488281 0.00390625 L 514.765625 71.28125 L 71.507812 514.539062 L 0.230469 443.261719 Z M 443.488281 0.00390625 " fill-opacity="1" fill-rule="nonzero"/></g></g></g></g></g></g></svg>